<svg width="99" height="51" viewBox="0 0 99 51" fill="none" xmlns="http://www.w3.org/2000/svg">
<g clip-path="url(#clip0)">
<path d="M4.13804 51L0 46.563C2.14549 44.9989 3.21824 42.755 3.21824 39.8313V17.9521H10.3702V40.2392C10.3702 42.9591 9.88482 45.1861 8.91408 46.9201C7.94353 48.6542 6.35152 50.0141 4.13804 51ZM2.96279 10.0471C2.96279 9.02699 3.36301 8.16853 4.16345 7.47173C4.9637 6.77452 5.87461 6.42592 6.89621 6.42592C7.8839 6.42592 8.76941 6.77452 9.5527 7.47173C10.336 8.16853 10.7276 9.02699 10.7276 10.0471C10.7276 11.067 10.336 11.917 9.5527 12.5971C8.76941 13.277 7.8839 13.6169 6.89621 13.6169C5.87461 13.6169 4.9637 13.277 4.16345 12.5971C3.36301 11.917 2.96279 11.067 2.96279 10.0471ZM15.9892 28.8151C15.9892 26.5372 16.5256 24.4971 17.5984 22.695C18.6711 20.893 20.1865 19.4736 22.1447 18.4365C24.103 17.3997 26.3251 16.8812 28.8112 16.8812C31.2973 16.8812 33.4854 17.3997 35.3754 18.4365C37.2657 19.4736 38.7216 20.893 39.7432 22.695C40.7648 24.4971 41.2756 26.5372 41.2756 28.8151C41.2756 31.0931 40.7648 33.15 39.7432 34.986C38.7216 36.8222 37.2657 38.2587 35.3754 39.2955C33.4854 40.3326 31.2633 40.8511 28.7092 40.8511C26.2231 40.8511 24.0179 40.3666 22.0936 39.3977C20.1695 38.4285 18.6711 37.043 17.5984 35.241C16.5256 33.4391 15.9892 31.2971 15.9892 28.8151ZM23.192 28.8662C23.192 30.6341 23.7029 32.1045 24.7247 33.2775C25.7463 34.4506 27.0403 35.037 28.6069 35.037C30.2415 35.037 31.5612 34.4591 32.5661 33.3032C33.5705 32.1471 34.0728 30.6681 34.0728 28.8662C34.0728 27.064 33.5705 25.585 32.5661 24.4291C31.5612 23.273 30.2415 22.695 28.6069 22.695C27.0403 22.695 25.7463 23.2815 24.7247 24.4545C23.7029 25.6275 23.192 27.0981 23.192 28.8662ZM46.8948 0H54.0465V40.2392H46.8948V0ZM61.4027 0H68.5544V40.2392H61.4027V0ZM92.5639 17.9521H99.0003L84.5947 50.9492H77.6985L83.062 39.0662L72.7433 17.9521H80.7636L86.638 31.1101L92.5639 17.9521Z" fill="black"/>
</g>
<defs>
<clipPath id="clip0">
<rect width="99" height="51" fill="white"/>
</clipPath>
</defs>
</svg>

