<svg width="243" height="125" viewBox="0 0 243 125" fill="none" xmlns="http://www.w3.org/2000/svg">
<g clip-path="url(#clip0)">
<path d="M10.157 125L0 114.125C5.2662 110.292 7.89932 104.792 7.89932 97.6256V44.0003H25.4541V98.6255C25.4541 105.292 24.2627 110.75 21.88 115C19.4978 119.25 15.5901 122.584 10.157 125ZM7.27231 24.6253C7.27231 22.125 8.25465 20.0209 10.2194 18.313C12.1836 16.6042 14.4195 15.7498 16.9271 15.7498C19.3514 15.7498 21.5249 16.6042 23.4475 18.313C25.3702 20.0209 26.3315 22.125 26.3315 24.6253C26.3315 27.1251 25.3702 29.2084 23.4475 30.8753C21.5249 32.5417 19.3514 33.3748 16.9271 33.3748C14.4195 33.3748 12.1836 32.5417 10.2194 30.8753C8.25465 29.2084 7.27231 27.1251 7.27231 24.6253ZM39.2461 70.6252C39.2461 65.042 40.5628 60.0419 43.1961 55.6249C45.829 51.2084 49.5487 47.7293 54.3553 45.1875C59.1619 42.6462 64.6163 41.3756 70.7185 41.3756C76.8207 41.3756 82.1914 42.6462 86.8306 45.1875C91.4702 47.7293 95.0438 51.2084 97.5514 55.6249C100.059 60.0419 101.313 65.042 101.313 70.6252C101.313 76.2085 100.059 81.25 97.5514 85.75C95.0438 90.2504 91.4702 93.7712 86.8306 96.3125C82.1914 98.8543 76.7372 100.125 70.4681 100.125C64.3659 100.125 58.9531 98.9378 54.2297 96.5629C49.5068 94.1875 45.829 90.7915 43.1961 86.375C40.5628 81.9585 39.2461 76.7086 39.2461 70.6252ZM56.9257 70.7504C56.9257 75.0834 58.1798 78.6875 60.6878 81.5626C63.1953 84.4376 66.3717 85.8751 70.217 85.8751C74.2292 85.8751 77.4685 84.4586 79.935 81.6255C82.4004 78.7919 83.6331 75.1669 83.6331 70.7504C83.6331 66.3334 82.4004 62.7084 79.935 59.8753C77.4685 57.0417 74.2292 55.6249 70.217 55.6249C66.3717 55.6249 63.1953 57.0625 60.6878 59.9375C58.1798 62.8126 56.9257 66.4168 56.9257 70.7504ZM115.105 0H132.66V98.6255H115.105V0ZM150.716 0H168.27V98.6255H150.716V0ZM227.202 44.0003H243.001L207.642 124.876H190.714L203.879 95.7504L178.552 44.0003H198.238L212.657 76.2502L227.202 44.0003Z" fill="white"/>
</g>
<defs>
<clipPath id="clip0">
<rect width="243" height="125" fill="white"/>
</clipPath>
</defs>
</svg>

